{
	"asset":{
		"generator":"Khronos glTF Blender I/O v3.6.27",
		"version":"2.0"
	},
	"scene":0,
	"scenes":[
		{
			"name":"Scene",
			"nodes":[
				0,
				1,
				2,
				3
			]
		}
	],
	"nodes":[
		{
			"mesh":0,
			"name":"Cube",
			"rotation":[
				0,
				-0.7071068286895752,
				0,
				0.7071068286895752
			],
			"scale":[
				2,
				2,
				2
			],
			"translation":[
				0.23629863560199738,
				-3.5,
				0.23077592253684998
			]
		},
		{
			"mesh":1,
			"name":"Text",
			"rotation":[
				0.7071068286895752,
				0,
				0,
				0.7071068286895752
			],
			"scale":[
				1.3578717708587646,
				1.3578717708587646,
				1.3578717708587646
			],
			"translation":[
				-0.9656134247779846,
				2.9395155906677246,
				0.20408743619918823
			]
		},
		{
			"mesh":2,
			"name":"Suzanne",
			"translation":[
				0.5040615797042847,
				-0.6242449283599854,
				0.26850980520248413
			]
		},
		{
			"mesh":3,
			"name":"Cube.001",
			"rotation":[
				0,
				-0.7071068286895752,
				0,
				0.7071068286895752
			],
			"scale":[
				2,
				2,
				2
			],
			"translation":[
				0.23629863560199738,
				-12.16005802154541,
				0.23077592253684998
			]
		}
	],
	"materials":[
		{
			"doubleSided":true,
			"name":"Material",
			"pbrMetallicRoughness":{
				"baseColorFactor":[
					0.6441289186477661,
					0.6251486539840698,
					0.5461668968200684,
					1
				],
				"metallicFactor":0,
				"roughnessFactor":0.5
			}
		},
		{
			"doubleSided":true,
			"name":"Material.001",
			"pbrMetallicRoughness":{
				"baseColorFactor":[
					0.022806964814662933,
					0.022806964814662933,
					0.022806964814662933,
					1
				],
				"metallicFactor":0,
				"roughnessFactor":0.5
			}
		},
		{
			"doubleSided":true,
			"name":"Material.002",
			"pbrMetallicRoughness":{
				"baseColorFactor":[
					0.8000000715255737,
					0.5914401412010193,
					0.09308706969022751,
					1
				],
				"metallicFactor":0,
				"roughnessFactor":0.5
			}
		}
	],
	"meshes":[
		{
			"name":"Cube",
			"primitives":[
				{
					"attributes":{
						"POSITION":0,
						"NORMAL":1,
						"TEXCOORD_0":2
					},
					"indices":3,
					"material":0
				}
			]
		},
		{
			"name":"Text",
			"primitives":[
				{
					"attributes":{
						"POSITION":4,
						"NORMAL":5,
						"TEXCOORD_0":6
					},
					"indices":7,
					"material":1
				}
			]
		},
		{
			"name":"Suzanne",
			"primitives":[
				{
					"attributes":{
						"POSITION":8,
						"NORMAL":9,
						"TEXCOORD_0":10
					},
					"indices":11,
					"material":2
				}
			]
		},
		{
			"name":"Cube.001",
			"primitives":[
				{
					"attributes":{
						"POSITION":12,
						"NORMAL":13,
						"TEXCOORD_0":14
					},
					"indices":3,
					"material":0
				}
			]
		}
	],
	"accessors":[
		{
			"bufferView":0,
			"componentType":5126,
			"count":24,
			"max":[
				1,
				1,
				1
			],
			"min":[
				-1,
				-1,
				-1
			],
			"type":"VEC3"
		},
		{
			"bufferView":1,
			"componentType":5126,
			"count":24,
			"type":"VEC3"
		},
		{
			"bufferView":2,
			"componentType":5126,
			"count":24,
			"type":"VEC2"
		},
		{
			"bufferView":3,
			"componentType":5123,
			"count":36,
			"type":"SCALAR"
		},
		{
			"bufferView":4,
			"componentType":5126,
			"count":1434,
			"max":[
				2.1548471450805664,
				0.1599999964237213,
				1.0190404653549194
			],
			"min":[
				-0.02061423286795616,
				-0.1599999964237213,
				-0.6920000314712524
			],
			"type":"VEC3"
		},
		{
			"bufferView":5,
			"componentType":5126,
			"count":1434,
			"type":"VEC3"
		},
		{
			"bufferView":6,
			"componentType":5126,
			"count":1434,
			"type":"VEC2"
		},
		{
			"bufferView":7,
			"componentType":5123,
			"count":4176,
			"type":"SCALAR"
		},
		{
			"bufferView":8,
			"componentType":5126,
			"count":1966,
			"max":[
				1.3671875,
				0.984375,
				0.8515625
			],
			"min":[
				-1.3671875,
				-0.984375,
				-0.8515625
			],
			"type":"VEC3"
		},
		{
			"bufferView":9,
			"componentType":5126,
			"count":1966,
			"type":"VEC3"
		},
		{
			"bufferView":10,
			"componentType":5126,
			"count":1966,
			"type":"VEC2"
		},
		{
			"bufferView":11,
			"componentType":5123,
			"count":2904,
			"type":"SCALAR"
		},
		{
			"bufferView":12,
			"componentType":5126,
			"count":24,
			"max":[
				1,
				1,
				1
			],
			"min":[
				-1,
				-1,
				-1
			],
			"type":"VEC3"
		},
		{
			"bufferView":13,
			"componentType":5126,
			"count":24,
			"type":"VEC3"
		},
		{
			"bufferView":14,
			"componentType":5126,
			"count":24,
			"type":"VEC2"
		}
	],
	"bufferViews":[
		{
			"buffer":0,
			"byteLength":288,
			"byteOffset":0,
			"target":34962
		},
		{
			"buffer":0,
			"byteLength":288,
			"byteOffset":288,
			"target":34962
		},
		{
			"buffer":0,
			"byteLength":192,
			"byteOffset":576,
			"target":34962
		},
		{
			"buffer":0,
			"byteLength":72,
			"byteOffset":768,
			"target":34963
		},
		{
			"buffer":0,
			"byteLength":17208,
			"byteOffset":840,
			"target":34962
		},
		{
			"buffer":0,
			"byteLength":17208,
			"byteOffset":18048,
			"target":34962
		},
		{
			"buffer":0,
			"byteLength":11472,
			"byteOffset":35256,
			"target":34962
		},
		{
			"buffer":0,
			"byteLength":8352,
			"byteOffset":46728,
			"target":34963
		},
		{
			"buffer":0,
			"byteLength":23592,
			"byteOffset":55080,
			"target":34962
		},
		{
			"buffer":0,
			"byteLength":23592,
			"byteOffset":78672,
			"target":34962
		},
		{
			"buffer":0,
			"byteLength":15728,
			"byteOffset":102264,
			"target":34962
		},
		{
			"buffer":0,
			"byteLength":5808,
			"byteOffset":117992,
			"target":34963
		},
		{
			"buffer":0,
			"byteLength":288,
			"byteOffset":123800,
			"target":34962
		},
		{
			"buffer":0,
			"byteLength":288,
			"byteOffset":124088,
			"target":34962
		},
		{
			"buffer":0,
			"byteLength":192,
			"byteOffset":124376,
			"target":34962
		}
	],
	"buffers":[
		{
			"byteLength":124568,
			"uri":"data:application/octet-stream;base64,"
		}
	]
}
